<svg version="1.1" id="Layer_1" xmlns="http://www.w3.org/2000/svg" xmlns:xlink="http://www.w3.org/1999/xlink" x="0px" y="0px"
	 width="100%" viewBox="0 0 1161 1355" enable-background="new 0 0 1161 1355" xml:space="preserve">
<path fill="#000000" opacity="1.000000" stroke="none" 
	d="
M598.000000,1356.000000 
	C398.666656,1356.000000 199.833328,1356.000000 1.000000,1356.000000 
	C1.000000,904.333313 1.000000,452.666656 1.000000,1.000000 
	C388.000000,1.000000 775.000000,1.000000 1162.000000,1.000000 
	C1162.000000,452.666656 1162.000000,904.333313 1162.000000,1356.000000 
	C974.166687,1356.000000 786.333313,1356.000000 598.000000,1356.000000 
M571.678040,830.724426 
	C571.678040,830.724426 571.777161,830.392639 572.121948,830.209961 
	C572.335999,830.036377 572.458374,829.812683 572.498962,829.462708 
	C572.498962,829.462708 572.572632,829.441467 573.071655,829.071838 
	C574.224304,827.621399 575.376953,826.170898 576.491211,824.701477 
	C576.491211,824.701477 576.530518,824.720337 577.079285,824.303650 
	C578.446289,822.709045 579.813293,821.114441 581.760559,818.842896 
	C579.521545,818.842896 578.220520,818.842529 576.919434,818.842834 
	C534.768616,818.852905 492.617706,818.916382 450.467102,818.825073 
	C442.651276,818.808167 434.768127,818.709473 427.032471,817.729614 
	C366.370636,810.046143 328.907440,751.082764 348.137604,693.468994 
	C364.187225,645.384155 380.582336,597.414734 396.791901,549.383179 
	C403.680695,528.970459 413.873474,510.422180 427.990967,494.118774 
	C453.587616,464.558929 485.375275,448.748932 525.088684,448.864807 
	C627.549316,449.163788 730.011841,448.834778 832.472412,449.144318 
	C841.368591,449.171173 847.217773,446.909058 853.035095,439.866852 
	C879.328552,408.037018 906.313293,376.778168 933.606995,345.032684 
	C934.060120,344.354370 934.513184,343.676056 935.009644,342.999298 
	C935.009644,342.999298 934.993958,342.958740 935.493530,342.699188 
	C935.772400,342.223175 936.051208,341.747131 936.055054,341.028320 
	C936.055054,341.028320 936.309509,341.292450 936.874817,341.025513 
	C937.616455,340.035095 938.358032,339.044678 939.616028,337.829620 
	C940.160828,337.080658 940.705566,336.331665 941.832764,335.246613 
	C942.907166,333.843018 943.981567,332.439423 945.524658,330.824524 
	C945.680481,330.528564 945.836304,330.232605 946.493408,329.692566 
	C946.776245,329.225891 947.059082,328.759247 947.019958,328.001648 
	C947.019958,328.001648 947.331970,328.302734 947.899353,328.016113 
	C948.930786,326.680573 949.962219,325.345032 951.444824,323.801727 
	C951.709839,323.392303 951.974915,322.982880 952.841309,322.224854 
	C954.937805,319.789276 957.034363,317.353699 959.799011,314.141968 
	C956.093750,314.141968 953.640137,314.141876 951.186462,314.141968 
	C809.368164,314.146240 667.549866,314.192841 525.731628,314.104065 
	C506.973816,314.092316 488.462280,315.769531 470.190674,319.982880 
	C448.039307,325.090851 426.694458,332.356323 406.241364,343.955505 
	C392.010803,353.767487 376.906555,362.536652 363.714752,373.588562 
	C325.359558,405.721924 299.384430,446.849731 283.120819,493.686584 
	C258.748322,563.875977 235.283340,634.392456 212.434570,705.093628 
	C201.517227,738.875366 200.882690,773.679749 209.887421,808.190247 
	C220.823349,850.102051 242.964493,884.926819 277.770050,912.064392 
	C278.432678,912.460388 279.095337,912.856445 279.998932,913.750732 
	C280.476776,914.020508 280.954620,914.290283 281.787170,915.035339 
	C282.456940,915.429382 283.126709,915.823425 284.127716,916.804810 
	C290.352753,920.605652 296.577759,924.406433 303.167847,928.821045 
	C308.059570,931.058289 312.951324,933.295532 318.347839,935.996216 
	C339.338654,944.430603 361.114838,949.500061 383.744507,949.828613 
	C411.066833,950.225342 438.399231,950.017212 465.725830,949.845764 
	C467.656891,949.833679 470.096619,948.422180 471.422485,946.898254 
	C488.697998,927.040710 505.814850,907.045105 522.971802,887.084351 
	C539.030823,868.400757 555.089722,849.717041 571.300293,830.992126 
	C571.300293,830.992126 571.353088,830.844055 571.678040,830.724426 
M449.925049,702.925171 
	C516.493469,702.930298 583.061951,702.954041 649.630371,702.931091 
	C675.086609,702.922302 700.542786,702.806580 726.851501,702.931458 
	C728.598267,702.970886 730.345093,703.010315 731.834778,703.673706 
	C729.571350,706.449280 727.307922,709.224854 724.808350,712.614197 
	C724.121399,713.705322 723.434387,714.796448 722.150574,716.175842 
	C720.560974,717.583313 718.782776,718.828613 717.411072,720.423523 
	C703.955322,736.068298 690.528870,751.738708 677.166748,767.463623 
	C624.253906,829.732910 571.365723,892.023071 518.481323,954.316528 
	C517.401489,955.588501 516.478455,956.993591 515.174255,958.751953 
	C524.089905,958.751953 532.067627,958.751953 540.967163,958.885437 
	C610.923401,958.919617 680.879578,958.980042 750.835815,958.939758 
	C756.643677,958.936401 762.527527,958.726318 768.246216,957.805786 
	C799.999817,952.694336 827.229675,938.851929 849.684937,914.799133 
	C849.869873,914.258667 850.054749,913.718262 850.260193,913.169556 
	C850.260193,913.169556 850.266968,913.199524 850.909912,913.018738 
	C855.181519,907.521545 859.870056,902.295044 863.647278,896.476868 
	C875.404541,878.366943 880.891663,857.707642 886.809509,837.281311 
	C906.093506,770.719177 925.310791,704.137573 944.452332,637.534302 
	C949.272949,620.760986 953.714233,603.878601 958.155579,586.100891 
	C957.183716,585.959534 956.211975,585.694946 955.240051,585.694580 
	C922.300049,585.682373 889.360046,585.695312 855.645203,585.293945 
	C847.524597,585.328735 839.403992,585.363586 830.311462,585.367920 
	C825.316345,585.412415 820.321289,585.494751 815.326172,585.495850 
	C726.393372,585.514771 637.460449,585.503662 548.527954,585.659790 
	C546.445129,585.663452 543.743713,586.993774 542.378540,588.597229 
	C523.817261,610.398560 505.357880,632.288208 487.048401,654.301758 
	C474.497345,669.391907 462.218414,684.708374 449.365784,700.071777 
	C449.106934,700.290710 448.972992,700.569641 448.346191,701.174072 
	C448.565155,701.698608 448.784119,702.223206 449.925049,702.925171 
z"/>
<path fill="#F2EDE3" opacity="1.000000" stroke="none" 
	d="
M277.414917,911.597717 
	C242.964493,884.926819 220.823349,850.102051 209.887421,808.190247 
	C200.882690,773.679749 201.517227,738.875366 212.434570,705.093628 
	C235.283340,634.392456 258.748322,563.875977 283.120819,493.686584 
	C299.384430,446.849731 325.359558,405.721924 363.714752,373.588562 
	C376.906555,362.536652 392.010803,353.767487 406.792633,344.147705 
	C407.652466,344.427063 408.026276,344.674072 408.260223,344.578491 
	C422.060455,338.941681 435.675995,332.799042 449.677948,327.721832 
	C472.816925,319.331512 497.082245,316.147034 521.486816,316.126404 
	C609.306824,316.052277 697.127319,316.657867 784.947754,316.963135 
	C808.683594,317.045654 832.419922,316.974457 856.156067,316.973785 
	C877.808838,316.973206 899.461609,316.945160 921.114258,317.002472 
	C924.232788,317.010742 927.421814,317.961060 930.454041,317.552826 
	C937.877441,316.553375 945.179749,316.062286 952.487854,318.587006 
	C952.401489,319.975281 952.320679,321.274353 952.239929,322.573456 
	C951.974915,322.982880 951.709839,323.392303 950.867676,323.946442 
	C949.304382,325.495026 948.318176,326.898865 947.331970,328.302734 
	C947.331970,328.302734 947.019958,328.001648 946.889526,328.207397 
	C946.503418,328.921021 946.247742,329.428833 945.992065,329.936646 
	C945.836304,330.232605 945.680481,330.528564 944.924438,330.969910 
	C943.299622,332.604431 942.274963,334.093567 941.250366,335.582703 
	C940.705566,336.331665 940.160828,337.080658 938.999756,337.975494 
	C937.692200,339.178406 937.000854,340.235443 936.309570,341.292480 
	C936.309509,341.292450 936.055054,341.028320 935.901001,341.220093 
	C935.495911,341.927460 935.244934,342.443085 934.993896,342.958740 
	C934.993958,342.958740 935.009644,342.999298 934.654419,343.065002 
	C933.882507,343.858368 933.465759,344.586029 933.049072,345.313660 
	C906.313293,376.778168 879.328552,408.037018 853.035095,439.866852 
	C847.217773,446.909058 841.368591,449.171173 832.472412,449.144318 
	C730.011841,448.834778 627.549316,449.163788 525.088684,448.864807 
	C485.375275,448.748932 453.587616,464.558929 427.990967,494.118774 
	C413.873474,510.422180 403.680695,528.970459 396.791901,549.383179 
	C380.582336,597.414734 364.187225,645.384155 348.137604,693.468994 
	C328.907440,751.082764 366.370636,810.046143 427.032471,817.729614 
	C434.768127,818.709473 442.651276,818.808167 450.467102,818.825073 
	C492.617706,818.916382 534.768616,818.852905 576.919434,818.842834 
	C578.220520,818.842529 579.521545,818.842896 581.760559,818.842896 
	C579.813293,821.114441 578.446289,822.709045 576.632507,824.082275 
	C574.451965,823.240723 572.726379,822.111877 570.983215,822.083923 
	C560.660583,821.918579 550.333862,822.008728 539.538940,822.008545 
	C505.430756,822.003601 471.791107,822.143555 438.154449,821.888611 
	C431.090332,821.835083 423.834900,821.102478 417.024597,819.319275 
	C405.693390,816.352356 394.638336,812.320740 383.503235,808.628357 
	C382.140472,808.176453 380.890930,807.180298 379.777039,806.218567 
	C376.326111,803.239014 373.073853,800.018982 369.513824,797.181580 
	C368.218292,796.148987 365.701111,794.990417 364.759644,795.563293 
	C363.368134,796.409851 362.555725,798.671204 362.118774,800.480408 
	C361.754883,801.987061 363.041504,804.470764 362.295929,805.210876 
	C358.117035,809.358643 355.254486,815.525696 347.778503,815.129883 
	C346.234802,815.048096 343.729858,816.295959 343.168457,817.584656 
	C341.353699,821.750610 339.766815,821.679504 336.686584,818.702942 
	C335.684937,817.734924 333.003815,818.504883 331.090851,818.479980 
	C331.315674,820.235718 331.309174,822.066162 331.844147,823.721680 
	C332.220215,824.885559 333.333191,825.811279 334.923309,827.904785 
	C328.480957,828.649963 323.401733,829.237488 317.991974,829.863281 
	C318.659882,834.263550 323.971649,839.931396 315.158539,841.822083 
	C314.168304,840.557800 313.215240,839.340942 313.014618,839.084839 
	C309.215912,839.537781 306.397156,839.873962 303.020996,840.276550 
	C303.277557,841.521301 303.386169,843.310730 304.026215,844.883911 
	C305.261566,847.920166 307.400299,850.713196 308.027008,853.835388 
	C308.580536,856.592834 307.923492,859.764038 307.076111,862.530518 
	C306.813812,863.386902 304.176514,863.515869 302.626587,863.977905 
	C302.355743,863.521179 302.084900,863.064453 301.814056,862.607666 
	C302.946198,861.420288 304.425262,860.401550 305.108368,858.995972 
	C305.733246,857.710266 305.497559,856.006287 305.641113,854.486633 
	C305.249786,854.424500 304.858490,854.362305 304.467194,854.300171 
	C303.317688,855.794373 302.168182,857.288635 301.495361,858.163208 
	C298.306427,856.489136 295.231934,853.453979 292.900513,853.945190 
	C287.945648,854.989319 282.963867,857.271301 278.775757,860.174805 
	C275.152466,862.686768 267.301453,862.774353 270.533539,870.876038 
	C271.061096,872.198364 271.082733,873.714844 271.530579,875.078369 
	C272.497070,878.020874 271.559662,879.825684 268.433716,880.805115 
	C267.936249,879.999329 267.653412,879.159119 267.072662,878.680237 
	C265.867981,877.687073 264.511841,876.196716 263.205627,876.183960 
	C261.653198,876.168945 259.376312,877.128845 258.753052,878.349976 
	C258.254272,879.327271 259.476074,881.536194 260.433716,882.828308 
	C262.301971,885.348938 264.447632,887.679626 266.624146,889.949219 
	C267.670197,891.040039 269.473785,892.821167 270.186646,892.520020 
	C271.675995,891.890747 272.843292,890.199585 273.800079,888.722534 
	C274.368408,887.845093 274.284119,886.544922 274.514435,885.322510 
	C280.649567,885.170776 283.468536,889.363098 286.116730,893.552063 
	C286.577606,894.281189 285.972687,895.959412 285.447876,896.989197 
	C283.047943,901.698303 280.501251,906.332642 277.854675,911.140320 
	C277.701996,911.286804 277.414917,911.597717 277.414917,911.597717 
z"/>
<path fill="#F2ECE1" opacity="1.000000" stroke="none" 
	d="
M732.091858,703.049744 
	C730.345093,703.010315 728.598267,702.970886 726.293091,702.469360 
	C723.685425,701.671509 721.636292,701.043274 719.586792,701.042114 
	C632.100220,700.992310 544.613647,701.007080 457.127106,700.952576 
	C454.690491,700.951050 452.254242,700.281616 449.817841,699.923706 
	C462.218414,684.708374 474.497345,669.391907 487.048401,654.301758 
	C505.357880,632.288208 523.817261,610.398560 542.378540,588.597229 
	C543.743713,586.993774 546.445129,585.663452 548.527954,585.659790 
	C637.460449,585.503662 726.393372,585.514771 815.326172,585.495850 
	C820.321289,585.494751 825.316345,585.412415 830.742859,585.766479 
	C811.739868,609.083435 792.305481,632.001892 772.564087,655.063660 
	C761.826599,668.089722 751.396118,680.972473 740.619934,693.901245 
	C739.752686,694.573486 739.231201,695.199646 738.760498,695.868896 
	C738.811218,695.911987 738.875305,695.795227 738.597412,695.862671 
	C738.154114,696.260864 737.988586,696.591553 737.872070,696.935303 
	C737.921143,696.948425 737.928223,696.847168 737.661621,696.926147 
	C737.226074,697.324219 737.057068,697.643311 736.923828,697.975586 
	C736.959534,697.988892 736.980042,697.915466 736.723267,698.014038 
	C736.226379,698.388672 735.986328,698.664734 735.542358,699.000854 
	C735.096497,699.242920 734.961426,699.484558 734.660645,699.960815 
	C734.192322,700.739624 733.996460,701.343384 733.824951,701.904968 
	C733.849304,701.862732 733.767517,701.809570 733.522949,701.909424 
	C732.882874,702.356079 732.487366,702.702881 732.091858,703.049744 
z"/>
<path fill="#ECE3D4" opacity="1.000000" stroke="none" 
	d="
M540.008484,822.012939 
	C550.333862,822.008728 560.660583,821.918579 570.983215,822.083923 
	C572.726379,822.111877 574.451965,823.240723 576.358154,824.290588 
	C576.530518,824.720337 576.491211,824.701477 576.160034,824.616333 
	C574.743408,826.167969 573.658020,827.804688 572.572632,829.441467 
	C572.572632,829.441467 572.498962,829.462708 572.235474,829.489502 
	C571.907104,829.808350 571.842163,830.100525 571.777222,830.392639 
	C571.777161,830.392639 571.678040,830.724426 571.392578,830.660278 
	C570.999268,830.567993 570.891357,830.539917 570.783447,830.511841 
	C570.905151,830.685669 571.026855,830.859497 571.148682,831.033325 
	C555.089722,849.717041 539.030823,868.400757 522.971802,887.084351 
	C505.814850,907.045105 488.697998,927.040710 471.422485,946.898254 
	C470.096619,948.422180 467.656891,949.833679 465.725830,949.845764 
	C438.399231,950.017212 411.066833,950.225342 383.744507,949.828613 
	C361.114838,949.500061 339.338654,944.430603 318.148376,935.389160 
	C317.984772,934.532104 318.020630,934.281982 318.420349,934.075012 
	C323.641510,935.830505 328.397949,938.026672 333.395081,939.068787 
	C336.265167,939.667297 339.752045,938.954041 342.551941,937.820435 
	C345.931763,936.451965 348.741150,932.687195 352.043762,932.346313 
	C357.036652,931.830872 360.636353,929.537476 364.628784,927.160950 
	C366.857361,925.834351 369.961487,926.049072 372.602356,925.320374 
	C374.431213,924.815735 376.283112,924.105591 377.870911,923.090393 
	C379.807037,921.852295 381.384033,920.059753 383.295776,918.773804 
	C384.522736,917.948425 386.073303,917.604126 387.478790,917.044189 
	C385.618591,915.051758 385.429291,914.783508 385.302307,914.488464 
	C384.678894,913.040039 383.273438,911.315125 383.650787,910.195862 
	C384.186279,908.607788 385.888855,907.204102 387.433594,906.311768 
	C387.822723,906.087097 389.382660,908.328979 390.631561,909.036621 
	C392.037048,909.833069 394.302216,911.089661 395.133728,910.540710 
	C397.382812,909.056213 399.160156,906.791199 400.857147,904.626099 
	C401.052734,904.376526 399.710236,902.614868 398.808380,901.896362 
	C397.868652,901.147705 396.598907,900.813354 395.003571,900.082581 
	C397.339844,899.107239 399.397186,898.751526 400.743591,897.579407 
	C403.373138,895.289856 405.657013,893.752686 409.591644,894.747131 
	C413.202209,895.659668 417.063873,891.876343 416.530334,889.207458 
	C415.895844,886.033447 415.605103,882.790649 415.124786,879.281006 
	C418.941711,880.882507 422.119080,882.048767 425.144012,883.526917 
	C428.978149,885.400452 431.264404,884.724609 431.968628,880.521545 
	C432.681183,876.268921 432.578094,871.879639 432.845032,867.333069 
	C437.213013,868.712036 440.127808,867.819763 443.342102,863.794556 
	C445.715302,860.822632 447.490936,859.070923 446.282745,855.158325 
	C445.985718,854.196472 447.835388,852.002563 449.187561,851.206116 
	C453.418091,848.714355 454.306854,845.485962 451.695465,841.145447 
	C451.012207,840.009644 450.262177,838.328308 450.616760,837.251038 
	C452.582855,831.278809 461.482849,825.423584 467.572601,825.090149 
	C477.462067,824.548523 487.166565,826.721130 497.261169,825.341125 
	C510.019928,823.596924 523.119751,824.387573 536.066284,823.916626 
	C537.401672,823.867981 538.695435,822.674927 540.008484,822.012939 
M389.604767,916.866211 
	C391.483307,917.253235 393.361877,917.640320 395.240417,918.027405 
	C395.031250,916.819519 395.251801,915.117859 394.534637,914.493774 
	C392.112854,912.386414 390.132172,912.925354 389.604767,916.866211 
z"/>
<path fill="#C08A31" opacity="1.000000" stroke="none" 
	d="
M772.871155,654.920410 
	C792.305481,632.001892 811.739868,609.083435 831.228821,585.781677 
	C839.403992,585.363586 847.524597,585.328735 855.951904,585.784485 
	C856.196045,586.461548 856.133606,586.648010 855.839478,587.122498 
	C854.405518,587.611084 853.203247,587.811646 851.566223,588.007751 
	C848.448242,588.500427 845.016296,588.121338 843.220032,589.656433 
	C837.482117,594.559937 832.344971,600.167419 826.988586,605.515869 
	C824.226440,608.273865 821.454102,611.023499 818.755493,613.843018 
	C816.607605,616.087036 814.559631,618.427002 812.476074,620.732361 
	C806.976562,626.817627 801.267761,632.731445 796.067261,639.062500 
	C793.048523,642.737549 790.967590,647.167236 788.251953,651.110718 
	C784.744812,656.203552 781.017456,661.144409 777.400146,666.161682 
	C775.498474,668.799194 773.684387,671.501648 771.727783,674.097107 
	C770.183289,676.145691 767.838989,677.827454 766.960144,680.101318 
	C763.015808,690.307007 753.945801,697.580872 751.026917,708.335449 
	C750.835571,709.040283 749.924927,709.549805 749.348816,710.150146 
	C744.692871,715.002686 744.364563,716.564758 749.364746,720.651917 
	C753.762146,724.246094 755.991943,728.534668 757.162109,733.876099 
	C758.702271,740.906738 761.743469,746.823975 769.121582,749.795227 
	C771.078674,750.583374 772.809631,753.301758 773.525818,755.498596 
	C774.763367,759.294128 776.309753,760.476929 780.398315,759.254700 
	C784.453430,758.042419 785.942627,760.139526 784.330627,764.215210 
	C783.830322,765.480103 782.595276,766.454285 781.691284,767.523560 
	C781.686035,767.485657 781.731567,767.423950 781.686035,767.045654 
	C775.278625,761.636108 768.287903,762.064270 761.190247,764.534119 
	C760.029175,764.938232 759.251282,766.443665 758.246338,767.378723 
	C758.196472,767.317444 758.348083,767.273071 758.059570,767.309448 
	C757.555237,767.650513 757.339355,767.955200 757.122131,768.202087 
	C757.120789,768.144287 757.229980,768.182617 756.880981,768.172119 
	C756.036621,768.819275 755.541199,769.476868 754.928101,770.400757 
	C753.993225,771.485596 753.175903,772.304016 751.973755,773.135254 
	C751.145569,774.182678 750.702209,775.217163 750.281616,776.194946 
	C750.304443,776.138306 750.328491,776.258118 749.945984,776.225708 
	C748.371399,779.120239 747.179321,782.047180 745.982910,785.413574 
	C745.993774,790.356812 745.519775,795.033264 750.198975,797.919312 
	C750.172180,797.958008 750.151917,797.866150 750.085205,798.238464 
	C750.815674,799.568726 751.612793,800.526672 752.505981,801.508911 
	C752.602051,801.533142 752.712219,801.697815 752.486694,802.012451 
	C752.340881,802.803345 752.251831,803.432251 752.524719,803.733643 
	C761.998596,814.197876 777.829590,812.938049 786.174072,804.712891 
	C786.528076,804.364014 786.207214,803.330383 786.292908,802.553894 
	C786.385010,802.491943 786.588379,802.580872 786.932495,802.599915 
	C787.437988,802.017517 787.599365,801.416077 787.774902,800.794067 
	C787.789062,800.773499 787.756287,800.735779 788.113525,800.810852 
	C789.679565,798.924500 790.888367,796.963135 792.312012,794.818787 
	C792.688965,794.103027 792.851196,793.570251 793.018188,792.701172 
	C793.042297,791.917480 793.061829,791.470032 793.343262,790.716431 
	C792.880371,785.574829 792.104004,780.746277 791.457764,775.900330 
	C791.221252,774.126465 790.551636,771.398315 791.389709,770.717224 
	C792.851929,769.528809 795.527710,768.875122 797.312195,769.371948 
	C798.540222,769.713806 799.699463,772.311584 799.890320,774.013123 
	C800.614380,780.468384 801.859924,781.264771 807.444885,777.920715 
	C808.493652,777.292725 809.088013,775.948364 810.022766,775.074341 
	C810.811829,774.336487 812.083252,773.102722 812.621338,773.328369 
	C813.605957,773.741211 814.770447,775.017151 814.864014,776.025574 
	C815.170105,779.324646 816.535645,780.073792 819.808289,779.689209 
	C828.190308,778.704224 829.825928,779.947876 833.062073,787.745117 
	C833.439392,788.654175 834.983093,789.881226 835.683533,789.711609 
	C838.356262,789.064453 840.894958,787.877441 843.504272,786.949646 
	C844.920776,786.445984 846.378601,786.058350 847.817749,785.618347 
	C848.079834,787.314026 848.327515,789.012146 848.608582,790.704712 
	C848.863586,792.240540 848.856201,794.957581 849.477844,795.113892 
	C854.212524,796.305420 859.106018,797.796082 863.884827,797.600403 
	C868.007568,797.431702 872.030823,795.122192 876.127502,793.854309 
	C877.362366,793.472168 878.931152,792.857422 879.945190,793.290283 
	C885.732422,795.760986 891.349731,794.466248 896.991943,793.392090 
	C895.586487,798.859619 894.292175,803.958801 892.786682,808.994873 
	C889.589905,819.688477 886.283264,830.349121 882.833374,840.700500 
	C877.871033,837.823425 873.450134,836.820374 868.494629,840.721558 
	C864.852783,843.588623 860.333984,845.425903 856.023071,847.301758 
	C854.896851,847.791809 853.052246,846.819275 851.599365,846.333557 
	C847.939636,845.109802 844.556580,843.062744 840.663635,846.449707 
	C837.743408,848.990112 835.131653,847.777771 834.046875,843.625000 
	C834.423157,840.853516 834.749146,838.441467 835.060547,835.569519 
	C835.954529,827.286865 834.323853,820.364563 828.412292,814.677917 
	C819.337097,805.947998 800.882202,805.663269 792.070801,822.190674 
	C790.785522,824.819031 789.384094,827.293518 789.069336,829.899231 
	C788.137024,837.616699 792.229126,843.776855 795.995483,850.363403 
	C794.268005,854.137329 792.514648,857.498230 790.858154,860.906128 
	C790.367126,861.916504 790.148804,863.059387 789.545654,863.934631 
	C784.839417,860.368652 780.393005,857.009644 775.831787,853.321533 
	C770.906494,850.506226 766.260498,849.878296 761.869873,854.429626 
	C761.132629,854.804810 760.578735,854.953186 759.878662,854.948792 
	C759.522888,855.077209 759.313354,855.358337 759.005188,855.792969 
	C758.691711,856.095093 758.458313,856.134766 757.875854,856.084045 
	C757.041138,856.465332 756.536926,856.828125 756.045898,857.127380 
	C756.059082,857.063782 756.181274,857.108032 755.825867,857.116760 
	C755.046204,857.839905 754.621948,858.554321 754.178833,859.215576 
	C754.159851,859.162476 754.264038,859.205811 753.916504,859.157349 
	C752.371277,860.074219 751.173523,861.039551 749.634277,861.961121 
	C745.551270,858.951599 741.809753,855.985901 738.261353,852.760376 
	C739.395752,851.180603 740.337036,849.860657 741.468384,848.497681 
	C741.658447,848.454773 741.814087,848.812134 742.081299,848.762085 
	C742.471985,848.395508 742.595520,848.078918 742.730347,847.783813 
	C742.741699,847.805298 742.783142,847.780090 743.058105,847.747559 
	C743.460938,847.394653 743.588745,847.074280 743.603271,846.690918 
	C743.489929,846.627930 743.550476,846.375793 743.913574,846.500854 
	C745.110229,845.012085 745.943726,843.398254 746.782227,841.835938 
	C746.787170,841.887512 746.690735,841.849609 747.063232,841.780518 
	C751.813721,836.485901 752.590271,825.365784 747.309753,821.859619 
	C743.992065,818.258240 741.465088,813.931213 737.697144,811.700500 
	C724.488342,803.880737 710.042053,810.858154 704.624512,826.861938 
	C703.926147,826.489014 703.461792,826.239807 703.030396,825.667480 
	C703.257629,824.555725 703.451965,823.767151 703.442688,823.804932 
	C701.157715,822.708618 698.063171,822.225708 697.398804,820.690918 
	C696.120850,817.738464 696.768921,814.473450 700.388855,812.738770 
	C702.154236,811.892700 703.763672,810.717468 705.429993,809.669434 
	C709.331238,807.215637 708.155151,804.118469 706.477539,801.000366 
	C704.471069,797.271057 702.849060,800.099243 701.053101,801.298645 
	C699.121826,802.588440 697.172668,803.902588 695.082214,804.890808 
	C691.990845,806.352112 688.767883,807.535034 685.600891,808.836487 
	C684.908752,808.005981 684.216614,807.175476 683.524475,806.344971 
	C685.479187,805.273682 687.971924,804.628601 689.247131,803.018982 
	C690.712769,801.169006 691.120850,798.472290 691.951721,796.130371 
	C693.086060,792.933044 694.038391,789.657349 695.420532,786.572998 
	C695.708801,785.929871 697.864746,785.382324 698.594177,785.793762 
	C705.383484,789.623901 705.347595,789.687500 709.072693,781.611877 
	C705.603271,781.418884 702.546753,781.248840 699.332520,781.070068 
	C697.075806,773.074341 704.196777,768.207947 706.170532,761.599915 
	C707.256653,757.963318 710.004822,754.817139 712.038879,751.471252 
	C714.674316,747.136169 717.321594,742.807861 720.011414,738.506409 
	C721.130127,736.717468 721.986084,734.127441 723.623413,733.407959 
	C731.481079,729.955078 733.890137,721.848145 736.939758,715.558167 
	C739.621887,710.026184 741.675415,704.809570 745.999817,700.001648 
	C752.363647,692.926208 757.275452,684.546631 762.826538,676.737366 
	C764.268738,674.708496 765.822021,672.758667 767.265259,670.730591 
	C771.195557,665.207703 775.094360,659.662292 779.584473,653.306519 
	C776.528748,654.041138 774.699951,654.480774 772.871155,654.920410 
z"/>
<path fill="#D39D40" opacity="1.000000" stroke="none" 
	d="
M883.021667,841.023315 
	C886.283264,830.349121 889.589905,819.688477 892.786682,808.994873 
	C894.292175,803.958801 895.586487,798.859619 897.145020,793.060852 
	C900.869751,779.890076 904.426025,767.447449 908.250366,754.757812 
	C911.727051,743.361633 915.036499,732.239319 918.031982,721.033142 
	C918.463135,719.419983 917.383301,717.402893 917.002747,715.572754 
	C915.666016,716.892090 913.828430,717.982788 913.099487,719.579529 
	C911.702026,722.640625 910.433777,725.425842 906.404114,724.986572 
	C902.968750,724.612061 899.283264,724.744141 898.651733,719.820251 
	C898.516357,718.764465 896.883911,717.425171 895.686218,717.065796 
	C891.164001,715.708801 887.266602,713.964905 887.461121,709.341919 
	C884.709595,708.407593 881.276123,708.205994 880.797119,706.911316 
	C878.777283,701.451538 876.932861,696.224243 873.471619,691.220276 
	C871.018616,687.673828 869.293213,684.759277 864.930786,683.726379 
	C862.432556,683.134949 860.799377,681.738403 859.653992,678.667664 
	C857.811462,673.728027 856.380554,669.316650 859.487000,663.999146 
	C856.972717,664.620056 855.463562,666.070923 853.677551,666.618225 
	C852.453613,666.993225 850.844299,666.110840 849.407288,665.790527 
	C851.229126,657.893738 841.264709,655.766968 841.009155,648.828369 
	C841.001953,648.632751 839.426270,648.494873 838.138489,648.243530 
	C838.785400,649.966064 839.222351,651.129578 839.659302,652.293091 
	C839.184021,652.603333 838.708801,652.913574 838.233521,653.223816 
	C837.114746,651.678040 835.995972,650.132263 834.700134,648.341980 
	C829.446472,651.317810 828.117065,646.551270 826.026001,643.417053 
	C823.277222,639.297119 823.686035,634.594849 828.114868,632.839844 
	C834.195618,630.430237 837.511536,625.323181 841.954102,621.354065 
	C844.169373,619.374756 845.347778,616.278931 847.260132,613.901184 
	C848.571167,612.270996 850.201538,610.805298 851.935730,609.629883 
	C854.337646,608.001892 857.047302,606.833374 859.487610,605.255493 
	C863.105774,602.915955 866.444458,600.107117 870.186401,598.003845 
	C877.263123,594.026428 877.347168,594.175964 875.444214,586.907104 
	C903.383301,586.905273 930.856506,586.975769 958.329834,587.046265 
	C953.714233,603.878601 949.272949,620.760986 944.452332,637.534302 
	C925.310791,704.137573 906.093506,770.719177 886.809509,837.281311 
	C880.891663,857.707642 875.404541,878.366943 863.647278,896.476868 
	C859.870056,902.295044 855.181519,907.521545 850.470093,912.749268 
	C850.012634,911.975708 849.995056,911.471619 850.273743,910.826660 
	C851.365173,909.449951 852.160278,908.214111 853.258545,906.829102 
	C856.716980,902.123230 859.872192,897.566467 863.288879,892.794434 
	C873.531250,876.712158 878.202942,858.839966 883.021667,841.023315 
z"/>
<path fill="#B67F27" opacity="1.000000" stroke="none" 
	d="
M849.977417,910.967468 
	C849.995056,911.471619 850.012634,911.975708 850.148560,912.839722 
	C850.266968,913.199524 850.260193,913.169556 849.888550,913.083801 
	C849.023682,913.009094 848.530518,913.020142 847.689880,913.063110 
	C844.558350,916.063110 841.774292,919.031250 838.644043,921.934814 
	C838.013062,921.707581 837.640869,921.612183 837.456238,921.372314 
	C832.857117,915.400330 824.636597,914.654846 819.634888,919.904480 
	C816.363586,923.338013 812.576477,924.912720 807.981201,923.440186 
	C804.645630,922.371277 802.072144,923.305908 801.169678,926.434814 
	C799.221680,933.188232 794.422241,932.277954 789.339111,931.668640 
	C784.911682,931.137939 781.093811,932.359192 777.927002,935.961975 
	C773.928589,940.510986 769.552673,944.593994 762.515076,941.465271 
	C761.107239,940.839355 758.549194,941.076538 757.354126,941.996948 
	C752.370605,945.834839 746.834167,947.866577 740.977234,950.139038 
	C732.171814,953.555481 723.406189,954.372803 714.418823,954.910278 
	C707.121094,955.346680 699.773743,954.892212 692.455200,955.089294 
	C690.961121,955.129578 689.497742,956.312317 687.574463,956.977173 
	C684.747925,956.982178 682.367188,956.978455 679.883728,956.587769 
	C678.937744,955.804871 678.127502,955.175720 677.245728,955.050720 
	C671.391602,954.220825 665.523438,953.488525 659.656311,952.752197 
	C658.699158,952.632080 657.696472,952.780334 656.763428,952.578979 
	C653.921326,951.965698 650.923157,951.647705 648.307983,950.488098 
	C639.178040,946.439514 630.122864,942.208069 621.172668,937.776611 
	C618.271973,936.340332 615.123840,934.574707 613.236877,932.088501 
	C609.022766,926.535950 607.237122,919.655334 602.630554,913.954712 
	C598.071655,908.313110 596.417542,900.371948 593.190674,893.581421 
	C591.996216,891.067932 592.377747,889.232910 594.525574,888.110168 
	C599.543335,885.487061 600.333374,880.838562 601.044067,875.988220 
	C601.221985,874.773743 601.724487,872.781067 602.446106,872.598022 
	C610.841858,870.468445 610.757935,861.314453 615.805908,856.273254 
	C618.550171,853.532593 618.975281,848.793518 624.413330,848.438477 
	C625.814575,848.346985 627.440247,845.917969 628.287598,844.224792 
	C630.627930,839.548035 632.087158,834.358704 634.869141,829.992981 
	C638.308533,824.595642 642.586731,819.702148 646.760498,814.811096 
	C652.531067,808.048645 658.567810,801.513855 664.418091,794.818176 
	C665.152832,793.977417 665.329163,792.673157 665.966614,791.718811 
	C668.584961,787.799011 671.056213,783.749573 674.008118,780.092041 
	C677.482544,775.787231 681.502563,771.927063 685.084900,767.703613 
	C687.322754,765.065125 688.605896,761.091309 691.349915,759.522095 
	C696.342285,756.667114 698.563477,752.043884 701.629395,747.783997 
	C707.415833,739.744324 713.581177,731.976807 719.627930,724.126099 
	C720.002747,723.639526 720.680908,723.333313 721.275757,723.078125 
	C725.239990,721.377502 724.504028,718.743042 722.747437,715.887634 
	C723.434387,714.796448 724.121399,713.705322 725.315002,712.242859 
	C728.880310,710.913635 731.938904,709.955811 735.230896,709.208252 
	C731.405945,714.989990 727.474426,720.659729 723.254700,726.106018 
	C718.830322,731.816345 713.920410,737.156372 709.603149,742.942139 
	C704.346558,749.986755 699.840271,757.609375 694.367676,764.470032 
	C687.309265,773.318787 679.331787,781.436035 672.305420,790.308044 
	C668.360718,795.289062 665.765686,801.317810 662.101318,806.551575 
	C660.475769,808.873413 657.129822,810.010193 655.567810,812.353455 
	C650.622498,819.772034 646.097229,827.474670 641.557373,835.154785 
	C640.941650,836.196472 640.766418,837.840149 641.071411,839.029602 
	C643.162415,847.183289 637.488892,852.887573 634.161499,858.917358 
	C630.730103,865.135620 629.790833,864.954224 634.264282,870.850037 
	C637.066467,874.543152 641.772339,877.909912 642.382446,881.916687 
	C643.672302,890.388977 651.096558,892.347046 655.495667,897.411682 
	C657.288879,899.475952 659.060242,902.187134 659.348755,904.770813 
	C659.705688,907.966553 658.510376,911.335693 657.975464,914.693909 
	C658.553101,914.766785 659.107117,915.013245 659.507507,914.859558 
	C662.926697,913.547058 666.281372,913.509705 668.491455,916.718079 
	C671.071167,920.463196 674.062012,924.327148 670.081177,929.227783 
	C669.249573,930.251587 669.268433,933.261475 670.109741,934.034973 
	C671.273193,935.104431 673.890381,935.691589 675.348083,935.118835 
	C678.643250,933.824158 681.240723,933.579895 683.978638,936.261230 
	C686.217102,938.453491 688.376160,938.025330 690.901367,935.814392 
	C693.421326,933.608276 696.757263,932.330017 699.746338,930.664673 
	C704.350647,928.099548 705.642090,932.826355 708.269775,934.580750 
	C709.647339,935.500427 710.840698,936.732056 712.289185,937.497375 
	C713.361450,938.063843 714.929993,938.666077 715.901123,938.287415 
	C721.369385,936.155029 726.724487,933.732727 732.116394,931.405090 
	C736.446411,929.535950 737.141052,926.873169 733.486511,921.502930 
	C739.903809,915.547180 746.599060,909.452515 753.135132,903.191589 
	C754.995422,901.409607 756.392761,899.144165 758.317688,897.234070 
	C760.742004,898.329346 762.851135,899.290894 764.974487,900.637817 
	C765.396240,904.959900 765.473145,909.680481 770.704529,909.809509 
	C776.437683,909.950806 776.023621,905.158997 776.007935,901.144043 
	C776.006653,900.814453 776.021667,900.484924 776.340393,899.992676 
	C778.452759,898.902161 780.253845,897.974243 782.313171,897.248291 
	C785.302856,899.662354 788.034363,901.874390 790.878174,904.177429 
	C793.708740,898.695801 792.733582,894.609985 789.022705,890.628052 
	C788.861328,889.739258 788.695923,889.246643 788.598755,888.731567 
	C788.667053,888.709229 788.743774,888.830811 789.111938,888.785095 
	C789.940491,887.450378 790.400757,886.161316 790.801880,884.904907 
	C790.742615,884.937561 790.675415,884.820190 790.971558,884.804626 
	C791.564514,884.544128 791.861267,884.299194 792.370361,884.042053 
	C792.582703,884.029785 793.007324,884.002441 793.352295,884.043579 
	C795.627869,886.050476 798.283569,887.690369 799.342651,890.047668 
	C801.765381,895.439758 805.906372,898.096191 811.282959,899.715088 
	C812.559753,897.447083 814.481506,895.413757 814.788330,893.160522 
	C815.233521,889.891174 816.727051,889.085938 819.615845,888.831055 
	C824.029114,888.441589 828.608582,888.282715 832.753662,886.919617 
	C838.048096,885.178772 842.959473,882.290222 848.075317,879.983765 
	C852.863098,877.825317 857.458008,879.144043 859.787476,883.734131 
	C861.256531,886.628601 861.973267,889.904785 863.027466,893.009766 
	C859.872192,897.566467 856.716980,902.123230 852.911865,906.885376 
	C851.500427,908.382996 850.738892,909.675232 849.977417,910.967468 
z"/>
<path fill="#AE7823" opacity="1.000000" stroke="none" 
	d="
M722.448975,716.031738 
	C724.504028,718.743042 725.239990,721.377502 721.275757,723.078125 
	C720.680908,723.333313 720.002747,723.639526 719.627930,724.126099 
	C713.581177,731.976807 707.415833,739.744324 701.629395,747.783997 
	C698.563477,752.043884 696.342285,756.667114 691.349915,759.522095 
	C688.605896,761.091309 687.322754,765.065125 685.084900,767.703613 
	C681.502563,771.927063 677.482544,775.787231 674.008118,780.092041 
	C671.056213,783.749573 668.584961,787.799011 665.966614,791.718811 
	C665.329163,792.673157 665.152832,793.977417 664.418091,794.818176 
	C658.567810,801.513855 652.531067,808.048645 646.760498,814.811096 
	C642.586731,819.702148 638.308533,824.595642 634.869141,829.992981 
	C632.087158,834.358704 630.627930,839.548035 628.287598,844.224792 
	C627.440247,845.917969 625.814575,848.346985 624.413330,848.438477 
	C618.975281,848.793518 618.550171,853.532593 615.805908,856.273254 
	C610.757935,861.314453 610.841858,870.468445 602.446106,872.598022 
	C601.724487,872.781067 601.221985,874.773743 601.044067,875.988220 
	C600.333374,880.838562 599.543335,885.487061 594.525574,888.110168 
	C592.377747,889.232910 591.996216,891.067932 593.190674,893.581421 
	C596.417542,900.371948 598.071655,908.313110 602.630554,913.954712 
	C607.237122,919.655334 609.022766,926.535950 613.236877,932.088501 
	C615.123840,934.574707 618.271973,936.340332 621.172668,937.776611 
	C630.122864,942.208069 639.178040,946.439514 648.307983,950.488098 
	C650.923157,951.647705 653.921326,951.965698 656.763428,952.578979 
	C657.696472,952.780334 658.699158,952.632080 659.656311,952.752197 
	C665.523438,953.488525 671.391602,954.220825 677.245728,955.050720 
	C678.127502,955.175720 678.937744,955.804871 679.416626,956.593872 
	C634.595642,957.004333 590.139160,957.000732 545.682922,957.111328 
	C543.802368,957.116028 541.924500,958.180969 540.045410,958.751953 
	C532.067627,958.751953 524.089905,958.751953 515.174255,958.751953 
	C516.478455,956.993591 517.401489,955.588501 518.481323,954.316528 
	C571.365723,892.023071 624.253906,829.732910 677.166748,767.463623 
	C690.528870,751.738708 703.955322,736.068298 717.411072,720.423523 
	C718.782776,718.828613 720.560974,717.583313 722.448975,716.031738 
z"/>
<path fill="#ECE3D4" opacity="1.000000" stroke="none" 
	d="
M952.540649,322.399170 
	C952.320679,321.274353 952.401489,319.975281 952.487854,318.587006 
	C945.179749,316.062286 937.877441,316.553375 930.454041,317.552826 
	C927.421814,317.961060 924.232788,317.010742 921.114258,317.002472 
	C899.461609,316.945160 877.808838,316.973206 856.156067,316.973785 
	C832.419922,316.974457 808.683594,317.045654 784.947754,316.963135 
	C697.127319,316.657867 609.306824,316.052277 521.486816,316.126404 
	C497.082245,316.147034 472.816925,319.331512 449.677948,327.721832 
	C435.675995,332.799042 422.060455,338.941681 408.260223,344.578491 
	C408.026276,344.674072 407.652466,344.427063 407.145203,344.092041 
	C426.694458,332.356323 448.039307,325.090851 470.190674,319.982880 
	C488.462280,315.769531 506.973816,314.092316 525.731628,314.104065 
	C667.549866,314.192841 809.368164,314.146240 951.186462,314.141968 
	C953.640137,314.141876 956.093750,314.141968 959.799011,314.141968 
	C957.034363,317.353699 954.937805,319.789276 952.540649,322.399170 
z"/>
<path fill="#C08A31" opacity="1.000000" stroke="none" 
	d="
M540.506287,958.818665 
	C541.924500,958.180969 543.802368,957.116028 545.682922,957.111328 
	C590.139160,957.000732 634.595642,957.004333 679.519287,956.980835 
	C682.367188,956.978455 684.747925,956.982178 688.040710,956.984192 
	C715.332764,956.654785 741.756958,957.128540 768.075500,955.681580 
	C782.527344,954.887085 796.286743,949.351135 809.380188,942.000610 
	C813.081665,940.203369 816.466309,938.507141 819.730774,936.604553 
	C822.429504,935.031677 825.992493,933.785400 827.362305,931.368469 
	C829.258667,928.022339 831.318848,926.191467 835.279419,925.817505 
	C836.706299,924.452881 837.848267,923.226135 838.990234,921.999390 
	C841.774292,919.031250 844.558350,916.063110 847.715759,913.379517 
	C848.456299,914.143433 848.823547,914.622681 849.190796,915.101929 
	C827.229675,938.851929 799.999817,952.694336 768.246216,957.805786 
	C762.527527,958.726318 756.643677,958.936401 750.835815,958.939758 
	C680.879578,958.980042 610.923401,958.919617 540.506287,958.818665 
z"/>
<path fill="#F2EDE3" opacity="1.000000" stroke="none" 
	d="
M449.591797,699.997742 
	C452.254242,700.281616 454.690491,700.951050 457.127106,700.952576 
	C544.613647,701.007080 632.100220,700.992310 719.586792,701.042114 
	C721.636292,701.043274 723.685425,701.671509 725.866882,702.373413 
	C700.542786,702.806580 675.086609,702.922302 649.630371,702.931091 
	C583.061951,702.954041 516.493469,702.930298 449.462585,702.529785 
	C448.988068,701.725830 448.976013,701.317200 448.963959,700.908569 
	C448.972992,700.569641 449.106934,700.290710 449.591797,699.997742 
z"/>
<path fill="#ECE3D4" opacity="1.000000" stroke="none" 
	d="
M958.242676,586.573608 
	C930.856506,586.975769 903.383301,586.905273 874.983582,586.830383 
	C868.061829,586.828796 862.066528,586.831604 856.071228,586.834412 
	C856.133606,586.648010 856.196045,586.461548 856.339294,585.989807 
	C889.360046,585.695312 922.300049,585.682373 955.240051,585.694580 
	C956.211975,585.694946 957.183716,585.959534 958.242676,586.573608 
z"/>
<path fill="#F2EDE3" opacity="1.000000" stroke="none" 
	d="
M302.802795,928.207214 
	C296.577759,924.406433 290.352753,920.605652 284.027283,916.441040 
	C283.926819,916.077209 284.057220,915.937012 284.422028,915.962158 
	C289.927765,919.229004 295.278656,921.552673 300.815033,919.011353 
	C301.718689,922.624084 302.383820,925.283264 302.987640,928.008850 
	C302.926331,928.075256 302.802795,928.207214 302.802795,928.207214 
z"/>
<path fill="#AE7823" opacity="1.000000" stroke="none" 
	d="
M734.997559,708.997986 
	C731.938904,709.955811 728.880310,710.913635 725.433105,711.935974 
	C727.307922,709.224854 729.571350,706.449280 731.963318,703.361694 
	C732.487366,702.702881 732.882874,702.356079 733.632446,702.306091 
	C734.323547,704.734619 734.660583,706.866333 734.997559,708.997986 
z"/>
<path fill="#F2EDE3" opacity="1.000000" stroke="none" 
	d="
M318.056458,934.031921 
	C318.020630,934.281982 317.984772,934.532104 317.895996,935.157471 
	C312.951324,933.295532 308.059570,931.058289 302.985321,928.514160 
	C302.802795,928.207214 302.926331,928.075256 303.301453,927.992188 
	C308.469849,929.950073 313.263153,931.990967 318.056458,934.031921 
z"/>
<path fill="#F2EDE3" opacity="1.000000" stroke="none" 
	d="
M572.822144,829.256653 
	C573.658020,827.804688 574.743408,826.167969 576.179199,824.625854 
	C575.376953,826.170898 574.224304,827.621399 572.822144,829.256653 
z"/>
<path fill="#ECE3D4" opacity="1.000000" stroke="none" 
	d="
M947.615662,328.159424 
	C948.318176,326.898865 949.304382,325.495026 950.642090,324.050323 
	C949.962219,325.345032 948.930786,326.680573 947.615662,328.159424 
z"/>
<path fill="#ECE3D4" opacity="1.000000" stroke="none" 
	d="
M941.541565,335.414673 
	C942.274963,334.093567 943.299622,332.604431 944.690125,331.075562 
	C943.981567,332.439423 942.907166,333.843018 941.541565,335.414673 
z"/>
<path fill="#ECE3D4" opacity="1.000000" stroke="none" 
	d="
M936.592163,341.158997 
	C937.000854,340.235443 937.692200,339.178406 938.741577,338.087830 
	C938.358032,339.044678 937.616455,340.035095 936.592163,341.158997 
z"/>
<path fill="#F2EDE3" opacity="1.000000" stroke="none" 
	d="
M279.757996,913.252441 
	C279.095337,912.856445 278.432678,912.460388 277.592468,911.831055 
	C277.414917,911.597717 277.701996,911.286804 278.167053,911.188171 
	C279.105438,911.708374 279.578766,912.327271 279.978638,913.022705 
	C279.905151,913.099365 279.757996,913.252441 279.757996,913.252441 
z"/>
<path fill="#D39D40" opacity="1.000000" stroke="none" 
	d="
M849.437866,914.950562 
	C848.823547,914.622681 848.456299,914.143433 848.063171,913.347656 
	C848.530518,913.020142 849.023682,913.009094 849.878296,913.087891 
	C850.054749,913.718262 849.869873,914.258667 849.437866,914.950562 
z"/>
<path fill="#F2EDE3" opacity="1.000000" stroke="none" 
	d="
M283.861633,916.147339 
	C283.126709,915.823425 282.456940,915.429382 281.755951,914.658936 
	C281.724731,914.282471 282.005127,913.992859 282.317261,914.041016 
	C283.105347,914.705078 283.581299,915.321045 284.057251,915.937012 
	C284.057220,915.937012 283.926819,916.077209 283.861633,916.147339 
z"/>
<path fill="#ECE3D4" opacity="1.000000" stroke="none" 
	d="
M933.328003,345.173157 
	C933.465759,344.586029 933.882507,343.858368 934.632690,343.064240 
	C934.513184,343.676056 934.060120,344.354370 933.328003,345.173157 
z"/>
<path fill="#F2EDE3" opacity="1.000000" stroke="none" 
	d="
M281.578613,914.421265 
	C280.954620,914.290283 280.476776,914.020508 279.878479,913.501587 
	C279.757996,913.252441 279.905151,913.099365 280.266907,913.065308 
	C281.087494,913.351807 281.546295,913.672363 282.005127,913.992859 
	C282.005127,913.992859 281.724731,914.282471 281.578613,914.421265 
z"/>
<path fill="#ECE3D4" opacity="1.000000" stroke="none" 
	d="
M935.243713,342.828949 
	C935.244934,342.443085 935.495911,341.927460 936.038452,341.341461 
	C936.051208,341.747131 935.772400,342.223175 935.243713,342.828949 
z"/>
<path fill="#F2ECE1" opacity="1.000000" stroke="none" 
	d="
M448.655090,701.041321 
	C448.976013,701.317200 448.988068,701.725830 449.001617,702.441101 
	C448.784119,702.223206 448.565155,701.698608 448.655090,701.041321 
z"/>
<path fill="#ECE3D4" opacity="1.000000" stroke="none" 
	d="
M946.242737,329.814606 
	C946.247742,329.428833 946.503418,328.921021 947.050537,328.352905 
	C947.059082,328.759247 946.776245,329.225891 946.242737,329.814606 
z"/>
<path fill="#F2EDE3" opacity="1.000000" stroke="none" 
	d="
M571.949585,830.301270 
	C571.842163,830.100525 571.907104,829.808350 572.230591,829.527527 
	C572.458374,829.812683 572.335999,830.036377 571.949585,830.301270 
z"/>
<path fill="#F2EDE3" opacity="1.000000" stroke="none" 
	d="
M571.224487,831.012695 
	C571.026855,830.859497 570.905151,830.685669 570.783447,830.511841 
	C570.891357,830.539917 570.999268,830.567993 571.230103,830.720093 
	C571.353088,830.844055 571.300293,830.992126 571.224487,831.012695 
z"/>
<path fill="#F0E8DB" opacity="1.000000" stroke="none" 
	d="
M282.317261,914.041016 
	C281.546295,913.672363 281.087494,913.351807 280.340393,912.988647 
	C279.578766,912.327271 279.105438,911.708374 278.319702,911.041687 
	C280.501251,906.332642 283.047943,901.698303 285.447876,896.989197 
	C285.972687,895.959412 286.577606,894.281189 286.116730,893.552063 
	C283.468536,889.363098 280.649567,885.170776 274.514435,885.322510 
	C274.284119,886.544922 274.368408,887.845093 273.800079,888.722534 
	C272.843292,890.199585 271.675995,891.890747 270.186646,892.520020 
	C269.473785,892.821167 267.670197,891.040039 266.624146,889.949219 
	C264.447632,887.679626 262.301971,885.348938 260.433716,882.828308 
	C259.476074,881.536194 258.254272,879.327271 258.753052,878.349976 
	C259.376312,877.128845 261.653198,876.168945 263.205627,876.183960 
	C264.511841,876.196716 265.867981,877.687073 267.072662,878.680237 
	C267.653412,879.159119 267.936249,879.999329 268.433716,880.805115 
	C271.559662,879.825684 272.497070,878.020874 271.530579,875.078369 
	C271.082733,873.714844 271.061096,872.198364 270.533539,870.876038 
	C267.301453,862.774353 275.152466,862.686768 278.775757,860.174805 
	C282.963867,857.271301 287.945648,854.989319 292.900513,853.945190 
	C295.231934,853.453979 298.306427,856.489136 301.495361,858.163208 
	C302.168182,857.288635 303.317688,855.794373 304.467194,854.300171 
	C304.858490,854.362305 305.249786,854.424500 305.641113,854.486633 
	C305.497559,856.006287 305.733246,857.710266 305.108368,858.995972 
	C304.425262,860.401550 302.946198,861.420288 301.814056,862.607666 
	C302.084900,863.064453 302.355743,863.521179 302.626587,863.977905 
	C304.176514,863.515869 306.813812,863.386902 307.076111,862.530518 
	C307.923492,859.764038 308.580536,856.592834 308.027008,853.835388 
	C307.400299,850.713196 305.261566,847.920166 304.026215,844.883911 
	C303.386169,843.310730 303.277557,841.521301 303.020996,840.276550 
	C306.397156,839.873962 309.215912,839.537781 313.014618,839.084839 
	C313.215240,839.340942 314.168304,840.557800 315.158539,841.822083 
	C323.971649,839.931396 318.659882,834.263550 317.991974,829.863281 
	C323.401733,829.237488 328.480957,828.649963 334.923309,827.904785 
	C333.333191,825.811279 332.220215,824.885559 331.844147,823.721680 
	C331.309174,822.066162 331.315674,820.235718 331.090851,818.479980 
	C333.003815,818.504883 335.684937,817.734924 336.686584,818.702942 
	C339.766815,821.679504 341.353699,821.750610 343.168457,817.584656 
	C343.729858,816.295959 346.234802,815.048096 347.778503,815.129883 
	C355.254486,815.525696 358.117035,809.358643 362.295929,805.210876 
	C363.041504,804.470764 361.754883,801.987061 362.118774,800.480408 
	C362.555725,798.671204 363.368134,796.409851 364.759644,795.563293 
	C365.701111,794.990417 368.218292,796.148987 369.513824,797.181580 
	C373.073853,800.018982 376.326111,803.239014 379.777039,806.218567 
	C380.890930,807.180298 382.140472,808.176453 383.503235,808.628357 
	C394.638336,812.320740 405.693390,816.352356 417.024597,819.319275 
	C423.834900,821.102478 431.090332,821.835083 438.154449,821.888611 
	C471.791107,822.143555 505.430756,822.003601 539.538940,822.008545 
	C538.695435,822.674927 537.401672,823.867981 536.066284,823.916626 
	C523.119751,824.387573 510.019928,823.596924 497.261169,825.341125 
	C487.166565,826.721130 477.462067,824.548523 467.572601,825.090149 
	C461.482849,825.423584 452.582855,831.278809 450.616760,837.251038 
	C450.262177,838.328308 451.012207,840.009644 451.695465,841.145447 
	C454.306854,845.485962 453.418091,848.714355 449.187561,851.206116 
	C447.835388,852.002563 445.985718,854.196472 446.282745,855.158325 
	C447.490936,859.070923 445.715302,860.822632 443.342102,863.794556 
	C440.127808,867.819763 437.213013,868.712036 432.845032,867.333069 
	C432.578094,871.879639 432.681183,876.268921 431.968628,880.521545 
	C431.264404,884.724609 428.978149,885.400452 425.144012,883.526917 
	C422.119080,882.048767 418.941711,880.882507 415.124786,879.281006 
	C415.605103,882.790649 415.895844,886.033447 416.530334,889.207458 
	C417.063873,891.876343 413.202209,895.659668 409.591644,894.747131 
	C405.657013,893.752686 403.373138,895.289856 400.743591,897.579407 
	C399.397186,898.751526 397.339844,899.107239 395.003571,900.082581 
	C396.598907,900.813354 397.868652,901.147705 398.808380,901.896362 
	C399.710236,902.614868 401.052734,904.376526 400.857147,904.626099 
	C399.160156,906.791199 397.382812,909.056213 395.133728,910.540710 
	C394.302216,911.089661 392.037048,909.833069 390.631561,909.036621 
	C389.382660,908.328979 387.822723,906.087097 387.433594,906.311768 
	C385.888855,907.204102 384.186279,908.607788 383.650787,910.195862 
	C383.273438,911.315125 384.678894,913.040039 385.302307,914.488464 
	C385.429291,914.783508 385.618591,915.051758 387.478790,917.044189 
	C386.073303,917.604126 384.522736,917.948425 383.295776,918.773804 
	C381.384033,920.059753 379.807037,921.852295 377.870911,923.090393 
	C376.283112,924.105591 374.431213,924.815735 372.602356,925.320374 
	C369.961487,926.049072 366.857361,925.834351 364.628784,927.160950 
	C360.636353,929.537476 357.036652,931.830872 352.043762,932.346313 
	C348.741150,932.687195 345.931763,936.451965 342.551941,937.820435 
	C339.752045,938.954041 336.265167,939.667297 333.395081,939.068787 
	C328.397949,938.026672 323.641510,935.830505 318.420349,934.075012 
	C313.263153,931.990967 308.469849,929.950073 303.362732,927.925781 
	C302.383820,925.283264 301.718689,922.624084 300.815033,919.011353 
	C295.278656,921.552673 289.927765,919.229004 284.422058,915.962158 
	C283.581299,915.321045 283.105347,914.705078 282.317261,914.041016 
M351.955780,822.100220 
	C351.206635,821.175354 350.457458,820.250488 349.708282,819.325623 
	C349.263062,819.949219 348.817810,820.572876 348.372559,821.196594 
	C349.524628,821.728394 350.676666,822.260193 351.955780,822.100220 
M288.851074,877.376343 
	C288.936646,878.146179 289.022247,878.916077 289.107819,879.685852 
	C289.549316,879.571167 289.990814,879.456421 290.432343,879.341736 
	C290.122253,878.634460 289.812195,877.927185 288.851074,877.376343 
M287.630554,886.198547 
	C287.328949,885.611633 287.027313,885.024780 286.725739,884.437866 
	C286.295197,884.863342 285.864655,885.288757 285.434113,885.714172 
	C286.016571,886.023132 286.599030,886.332153 287.630554,886.198547 
z"/>
<path fill="#BB842B" opacity="1.000000" stroke="none" 
	d="
M735.230896,709.208252 
	C734.660583,706.866333 734.323547,704.734619 733.877075,702.206299 
	C733.767517,701.809570 733.849304,701.862732 734.116272,701.743652 
	C734.566528,701.011658 734.749817,700.398743 734.933105,699.785828 
	C734.961426,699.484558 735.096497,699.242920 735.802124,698.902527 
	C736.503967,698.467834 736.742004,698.191650 736.980042,697.915466 
	C736.980042,697.915466 736.959534,697.988892 737.164917,697.861450 
	C737.556274,697.438354 737.742249,697.142761 737.928223,696.847168 
	C737.928223,696.847168 737.921143,696.948425 738.128296,696.834229 
	C738.515320,696.411804 738.695312,696.103516 738.875305,695.795227 
	C738.875305,695.795227 738.811218,695.911987 739.084717,695.823853 
	C739.893982,695.108948 740.429810,694.482117 740.965637,693.855225 
	C751.396118,680.972473 761.826599,668.089722 772.564087,655.063721 
	C774.699951,654.480774 776.528748,654.041138 779.584473,653.306519 
	C775.094360,659.662292 771.195557,665.207703 767.265259,670.730591 
	C765.822021,672.758667 764.268738,674.708496 762.826538,676.737366 
	C757.275452,684.546631 752.363647,692.926208 745.999817,700.001648 
	C741.675415,704.809570 739.621887,710.026184 736.939758,715.558167 
	C733.890137,721.848145 731.481079,729.955078 723.623413,733.407959 
	C721.986084,734.127441 721.130127,736.717468 720.011414,738.506409 
	C717.321594,742.807861 714.674316,747.136169 712.038879,751.471252 
	C710.004822,754.817139 707.256653,757.963318 706.170532,761.599915 
	C704.196777,768.207947 697.075806,773.074341 699.332520,781.070068 
	C702.546753,781.248840 705.603271,781.418884 709.072693,781.611877 
	C705.347595,789.687500 705.383484,789.623901 698.594177,785.793762 
	C697.864746,785.382324 695.708801,785.929871 695.420532,786.572998 
	C694.038391,789.657349 693.086060,792.933044 691.951721,796.130371 
	C691.120850,798.472290 690.712769,801.169006 689.247131,803.018982 
	C687.971924,804.628601 685.479187,805.273682 683.524475,806.344971 
	C684.216614,807.175476 684.908752,808.005981 685.600891,808.836487 
	C688.767883,807.535034 691.990845,806.352112 695.082214,804.890808 
	C697.172668,803.902588 699.121826,802.588440 701.053101,801.298645 
	C702.849060,800.099243 704.471069,797.271057 706.477539,801.000366 
	C708.155151,804.118469 709.331238,807.215637 705.429993,809.669434 
	C703.763672,810.717468 702.154236,811.892700 700.388855,812.738770 
	C696.768921,814.473450 696.120850,817.738464 697.398804,820.690918 
	C698.063171,822.225708 701.157715,822.708618 703.442688,823.804932 
	C703.451965,823.767151 703.257629,824.555725 703.022949,826.129456 
	C702.549988,834.002136 702.802246,840.876892 707.974976,846.583923 
	C716.488342,855.976501 726.475952,858.174011 738.068176,853.020142 
	C741.809753,855.985901 745.551270,858.951599 749.494385,862.287476 
	C742.761780,876.319031 745.355042,887.071960 758.002441,897.100403 
	C756.392761,899.144165 754.995422,901.409607 753.135132,903.191589 
	C746.599060,909.452515 739.903809,915.547180 733.486511,921.502930 
	C737.141052,926.873169 736.446411,929.535950 732.116394,931.405090 
	C726.724487,933.732727 721.369385,936.155029 715.901123,938.287415 
	C714.929993,938.666077 713.361450,938.063843 712.289185,937.497375 
	C710.840698,936.732056 709.647339,935.500427 708.269775,934.580750 
	C705.642090,932.826355 704.350647,928.099548 699.746338,930.664673 
	C696.757263,932.330017 693.421326,933.608276 690.901367,935.814392 
	C688.376160,938.025330 686.217102,938.453491 683.978638,936.261230 
	C681.240723,933.579895 678.643250,933.824158 675.348083,935.118835 
	C673.890381,935.691589 671.273193,935.104431 670.109741,934.034973 
	C669.268433,933.261475 669.249573,930.251587 670.081177,929.227783 
	C674.062012,924.327148 671.071167,920.463196 668.491455,916.718079 
	C666.281372,913.509705 662.926697,913.547058 659.507507,914.859558 
	C659.107117,915.013245 658.553101,914.766785 657.975464,914.693909 
	C658.510376,911.335693 659.705688,907.966553 659.348755,904.770813 
	C659.060242,902.187134 657.288879,899.475952 655.495667,897.411682 
	C651.096558,892.347046 643.672302,890.388977 642.382446,881.916687 
	C641.772339,877.909912 637.066467,874.543152 634.264282,870.850037 
	C629.790833,864.954224 630.730103,865.135620 634.161499,858.917358 
	C637.488892,852.887573 643.162415,847.183289 641.071411,839.029602 
	C640.766418,837.840149 640.941650,836.196472 641.557373,835.154785 
	C646.097229,827.474670 650.622498,819.772034 655.567810,812.353455 
	C657.129822,810.010193 660.475769,808.873413 662.101318,806.551575 
	C665.765686,801.317810 668.360718,795.289062 672.305420,790.308044 
	C679.331787,781.436035 687.309265,773.318787 694.367676,764.470032 
	C699.840271,757.609375 704.346558,749.986755 709.603149,742.942139 
	C713.920410,737.156372 718.830322,731.816345 723.254700,726.106018 
	C727.474426,720.659729 731.405945,714.989990 735.230896,709.208252 
z"/>
<path fill="#AE7823" opacity="1.000000" stroke="none" 
	d="
M740.619934,693.901245 
	C740.429810,694.482117 739.893982,695.108948 739.033936,695.780762 
	C739.231201,695.199646 739.752686,694.573486 740.619934,693.901245 
z"/>
<path fill="#AE7823" opacity="1.000000" stroke="none" 
	d="
M734.660645,699.960815 
	C734.749817,700.398743 734.566528,701.011658 734.091919,701.785889 
	C733.996460,701.343384 734.192322,700.739624 734.660645,699.960815 
z"/>
<path fill="#AE7823" opacity="1.000000" stroke="none" 
	d="
M736.723267,698.014038 
	C736.742004,698.191650 736.503967,698.467834 736.006042,698.842407 
	C735.986328,698.664734 736.226379,698.388672 736.723267,698.014038 
z"/>
<path fill="#AE7823" opacity="1.000000" stroke="none" 
	d="
M737.661621,696.926147 
	C737.742249,697.142761 737.556274,697.438354 737.129150,697.848145 
	C737.057068,697.643311 737.226074,697.324219 737.661621,696.926147 
z"/>
<path fill="#AE7823" opacity="1.000000" stroke="none" 
	d="
M738.597412,695.862671 
	C738.695312,696.103516 738.515320,696.411804 738.079224,696.821167 
	C737.988586,696.591553 738.154114,696.260864 738.597412,695.862671 
z"/>
<path fill="#F0E8DB" opacity="1.000000" stroke="none" 
	d="
M389.439178,916.547485 
	C390.132172,912.925354 392.112854,912.386414 394.534637,914.493774 
	C395.251801,915.117859 395.031250,916.819519 395.240417,918.027405 
	C393.361877,917.640320 391.483307,917.253235 389.439178,916.547485 
z"/>
<path fill="#CD973C" opacity="1.000000" stroke="none" 
	d="
M855.839478,587.122498 
	C862.066528,586.831604 868.061829,586.828796 874.517822,586.902710 
	C877.347168,594.175964 877.263123,594.026428 870.186401,598.003845 
	C866.444458,600.107117 863.105774,602.915955 859.487610,605.255493 
	C857.047302,606.833374 854.337646,608.001892 851.935730,609.629883 
	C850.201538,610.805298 848.571167,612.270996 847.260132,613.901184 
	C845.347778,616.278931 844.169373,619.374756 841.954102,621.354065 
	C837.511536,625.323181 834.195618,630.430237 828.114868,632.839844 
	C823.686035,634.594849 823.277222,639.297119 826.026001,643.417053 
	C828.117065,646.551270 829.446472,651.317810 834.700134,648.341980 
	C835.995972,650.132263 837.114746,651.678040 838.233521,653.223816 
	C838.708801,652.913574 839.184021,652.603333 839.659302,652.293091 
	C839.222351,651.129578 838.785400,649.966064 838.138489,648.243530 
	C839.426270,648.494873 841.001953,648.632751 841.009155,648.828369 
	C841.264709,655.766968 851.229126,657.893738 849.407288,665.790527 
	C850.844299,666.110840 852.453613,666.993225 853.677551,666.618225 
	C855.463562,666.070923 856.972717,664.620056 859.487000,663.999146 
	C856.380554,669.316650 857.811462,673.728027 859.653992,678.667664 
	C860.799377,681.738403 862.432556,683.134949 864.930786,683.726379 
	C869.293213,684.759277 871.018616,687.673828 873.471619,691.220276 
	C876.932861,696.224243 878.777283,701.451538 880.797119,706.911316 
	C881.276123,708.205994 884.709595,708.407593 887.461121,709.341919 
	C887.266602,713.964905 891.164001,715.708801 895.686218,717.065796 
	C896.883911,717.425171 898.516357,718.764465 898.651733,719.820251 
	C899.283264,724.744141 902.968750,724.612061 906.404114,724.986572 
	C910.433777,725.425842 911.702026,722.640625 913.099487,719.579529 
	C913.828430,717.982788 915.666016,716.892090 917.002747,715.572754 
	C917.383301,717.402893 918.463135,719.419983 918.031982,721.033142 
	C915.036499,732.239319 911.727051,743.361633 907.881958,754.811829 
	C906.484497,756.422974 905.393982,757.647583 905.027405,759.060120 
	C904.130493,762.516602 902.940125,765.331482 898.638733,765.295166 
	C893.887573,765.255066 890.429626,768.091187 886.793213,770.696045 
	C881.812195,774.264221 880.287476,773.431091 876.874084,768.595947 
	C874.231995,764.853516 871.215820,761.316650 865.630859,760.762878 
	C861.590942,760.362305 857.784119,757.821167 853.820679,756.379211 
	C849.958984,754.974365 846.036621,752.762024 842.129517,752.737793 
	C838.416931,752.714661 837.481079,751.970215 838.280823,748.752991 
	C839.282227,744.723938 838.356750,742.244019 833.775574,741.937622 
	C832.916138,741.880127 831.505005,741.341675 831.352112,740.760986 
	C829.148560,732.388428 822.458069,729.972412 814.860352,728.218994 
	C814.317505,729.281921 814.006470,730.901855 813.076782,731.427246 
	C812.143799,731.954651 809.583252,731.678650 809.464783,731.262512 
	C807.319092,723.725525 802.186523,718.841675 796.090820,714.323608 
	C792.941284,711.989197 790.704956,711.568176 787.750305,713.818787 
	C786.767822,714.567200 785.711121,715.218201 784.502502,716.040100 
	C782.870728,712.326660 781.479248,709.084351 780.025146,705.870422 
	C778.244263,701.934387 776.952148,697.630920 774.468201,694.195190 
	C771.099854,689.536133 770.601379,685.396240 775.035889,681.610352 
	C778.918823,678.295288 780.989746,674.364807 782.204956,669.502197 
	C782.945679,666.538574 784.612549,663.626648 786.491882,661.172791 
	C788.849121,658.094788 792.240723,655.790649 794.494873,652.655640 
	C799.768738,645.320618 803.941406,637.441650 810.874268,631.041016 
	C818.495117,624.005371 823.059204,613.818298 832.679016,608.509766 
	C833.197510,608.223694 833.412170,607.433716 833.861572,606.968384 
	C836.645935,604.085693 839.057129,600.590698 842.358582,598.521729 
	C846.677551,595.814941 850.612549,593.211975 852.000977,588.012207 
	C853.203247,587.811646 854.405518,587.611084 855.839478,587.122498 
z"/>
<path fill="#C99237" opacity="1.000000" stroke="none" 
	d="
M851.566223,588.007751 
	C850.612549,593.211975 846.677551,595.814941 842.358582,598.521729 
	C839.057129,600.590698 836.645935,604.085693 833.861572,606.968384 
	C833.412170,607.433716 833.197510,608.223694 832.679016,608.509766 
	C823.059204,613.818298 818.495117,624.005371 810.874268,631.041016 
	C803.941406,637.441650 799.768738,645.320618 794.494873,652.655640 
	C792.240723,655.790649 788.849121,658.094788 786.491882,661.172791 
	C784.612549,663.626648 782.945679,666.538574 782.204956,669.502197 
	C780.989746,674.364807 778.918823,678.295288 775.035889,681.610352 
	C770.601379,685.396240 771.099854,689.536133 774.468201,694.195190 
	C776.952148,697.630920 778.244263,701.934387 780.025146,705.870422 
	C781.479248,709.084351 782.870728,712.326660 784.502502,716.040100 
	C785.711121,715.218201 786.767822,714.567200 787.750305,713.818787 
	C790.704956,711.568176 792.941284,711.989197 796.090820,714.323608 
	C802.186523,718.841675 807.319092,723.725525 809.464783,731.262512 
	C809.583252,731.678650 812.143799,731.954651 813.076782,731.427246 
	C814.006470,730.901855 814.317505,729.281921 814.860352,728.218994 
	C822.458069,729.972412 829.148560,732.388428 831.352112,740.760986 
	C831.505005,741.341675 832.916138,741.880127 833.775574,741.937622 
	C838.356750,742.244019 839.282227,744.723938 838.280823,748.752991 
	C837.481079,751.970215 838.416931,752.714661 842.129517,752.737793 
	C846.036621,752.762024 849.958984,754.974365 853.820679,756.379211 
	C857.784119,757.821167 861.590942,760.362305 865.630859,760.762878 
	C871.215820,761.316650 874.231995,764.853516 876.874084,768.595947 
	C880.287476,773.431091 881.812195,774.264221 886.793213,770.696045 
	C890.429626,768.091187 893.887573,765.255066 898.638733,765.295166 
	C902.940125,765.331482 904.130493,762.516602 905.027405,759.060120 
	C905.393982,757.647583 906.484497,756.422974 907.614014,755.058838 
	C904.426025,767.447449 900.869751,779.890076 897.160400,792.663940 
	C891.349731,794.466248 885.732422,795.760986 879.945190,793.290283 
	C878.931152,792.857422 877.362366,793.472168 876.127502,793.854309 
	C872.030823,795.122192 868.007568,797.431702 863.884827,797.600403 
	C859.106018,797.796082 854.212524,796.305420 849.477844,795.113892 
	C848.856201,794.957581 848.863586,792.240540 848.608582,790.704712 
	C848.327515,789.012146 848.079834,787.314026 847.817749,785.618347 
	C846.378601,786.058350 844.920776,786.445984 843.504272,786.949646 
	C840.894958,787.877441 838.356262,789.064453 835.683533,789.711609 
	C834.983093,789.881226 833.439392,788.654175 833.062073,787.745117 
	C829.825928,779.947876 828.190308,778.704224 819.808289,779.689209 
	C816.535645,780.073792 815.170105,779.324646 814.864014,776.025574 
	C814.770447,775.017151 813.605957,773.741211 812.621338,773.328369 
	C812.083252,773.102722 810.811829,774.336487 810.022766,775.074341 
	C809.088013,775.948364 808.493652,777.292725 807.444885,777.920715 
	C801.859924,781.264771 800.614380,780.468384 799.890320,774.013123 
	C799.699463,772.311584 798.540222,769.713806 797.312195,769.371948 
	C795.527710,768.875122 792.851929,769.528809 791.389709,770.717224 
	C790.551636,771.398315 791.221252,774.126465 791.457764,775.900330 
	C792.104004,780.746277 792.880371,785.574829 793.088501,790.705078 
	C792.402588,791.001587 792.233398,791.003296 792.030945,790.553101 
	C793.044739,780.540283 789.557312,773.051636 781.696655,767.561523 
	C782.595276,766.454285 783.830322,765.480103 784.330627,764.215210 
	C785.942627,760.139526 784.453430,758.042419 780.398315,759.254700 
	C776.309753,760.476929 774.763367,759.294128 773.525818,755.498596 
	C772.809631,753.301758 771.078674,750.583374 769.121582,749.795227 
	C761.743469,746.823975 758.702271,740.906738 757.162109,733.876099 
	C755.991943,728.534668 753.762146,724.246094 749.364746,720.651917 
	C744.364563,716.564758 744.692871,715.002686 749.348816,710.150146 
	C749.924927,709.549805 750.835571,709.040283 751.026917,708.335449 
	C753.945801,697.580872 763.015808,690.307007 766.960144,680.101318 
	C767.838989,677.827454 770.183289,676.145691 771.727783,674.097107 
	C773.684387,671.501648 775.498474,668.799194 777.400146,666.161682 
	C781.017456,661.144409 784.744812,656.203552 788.251953,651.110718 
	C790.967590,647.167236 793.048523,642.737549 796.067261,639.062500 
	C801.267761,632.731445 806.976562,626.817627 812.476074,620.732361 
	C814.559631,618.427002 816.607605,616.087036 818.755493,613.843018 
	C821.454102,611.023499 824.226440,608.273865 826.988586,605.515869 
	C832.344971,600.167419 837.482117,594.559937 843.220032,589.656433 
	C845.016296,588.121338 848.448242,588.500427 851.566223,588.007751 
z"/>
<path fill="#BB842B" opacity="1.000000" stroke="none" 
	d="
M863.288940,892.794434 
	C861.973267,889.904785 861.256531,886.628601 859.787476,883.734131 
	C857.458008,879.144043 852.863098,877.825317 848.075317,879.983765 
	C842.959473,882.290222 838.048096,885.178772 832.753662,886.919617 
	C828.608582,888.282715 824.029114,888.441589 819.615845,888.831055 
	C816.727051,889.085938 815.233521,889.891174 814.788330,893.160522 
	C814.481506,895.413757 812.559753,897.447083 811.282959,899.715088 
	C805.906372,898.096191 801.765381,895.439758 799.342651,890.047668 
	C798.283569,887.690369 795.627869,886.050476 793.362793,883.650269 
	C794.033691,882.151184 794.956055,880.286255 796.059814,880.171936 
	C799.368652,879.829346 799.340027,877.600525 798.895508,875.574036 
	C798.471497,873.641113 797.398193,871.744385 796.217834,870.116150 
	C795.212769,868.729675 793.634705,867.763916 792.338257,866.581299 
	C791.469360,865.788635 790.649536,864.942139 789.820801,864.111816 
	C789.833862,864.103943 789.805481,864.141541 789.805481,864.141541 
	C790.148804,863.059387 790.367126,861.916504 790.858154,860.906128 
	C792.514648,857.498230 794.268005,854.137329 796.243835,850.381470 
	C796.503357,850.004456 796.999451,850.050110 797.121094,850.252563 
	C797.446777,850.706787 797.701416,850.887451 798.359619,851.060913 
	C807.427734,856.733276 816.464661,857.556946 825.450317,852.142517 
	C827.642883,850.821472 828.860352,847.882202 830.571045,845.672852 
	C830.615967,845.658813 830.693970,845.711487 831.018677,845.732544 
	C832.227783,845.163879 833.112183,844.574158 833.996582,843.984375 
	C835.131653,847.777771 837.743408,848.990112 840.663635,846.449707 
	C844.556580,843.062744 847.939636,845.109802 851.599365,846.333557 
	C853.052246,846.819275 854.896851,847.791809 856.023071,847.301758 
	C860.333984,845.425903 864.852783,843.588623 868.494629,840.721558 
	C873.450134,836.820374 877.871033,837.823425 882.833374,840.700500 
	C878.202942,858.839966 873.531250,876.712158 863.288940,892.794434 
z"/>
<path fill="#000000" opacity="1.000000" stroke="none" 
	d="
M704.858459,826.985657 
	C710.042053,810.858154 724.488342,803.880737 737.697144,811.700500 
	C741.465088,813.931213 743.992065,818.258240 747.393250,822.274292 
	C749.825500,829.364075 749.257019,835.660034 746.690735,841.849609 
	C746.690735,841.849609 746.787170,841.887512 746.497925,842.006470 
	C745.322571,843.542236 744.436523,844.958984 743.550476,846.375793 
	C743.550476,846.375793 743.489929,846.627930 743.268555,846.617126 
	C742.959106,846.997559 742.871094,847.388855 742.783142,847.780090 
	C742.783142,847.780090 742.741699,847.805298 742.391357,847.711060 
	C741.965393,848.015198 741.889709,848.413696 741.814087,848.812134 
	C741.814087,848.812134 741.658447,848.454773 741.160706,848.491699 
	C737.201538,849.998962 733.861389,852.238098 730.257690,852.806885 
	C714.515747,855.291321 703.979980,844.386597 704.858459,826.985657 
z"/>
<path fill="#000000" opacity="1.000000" stroke="none" 
	d="
M781.691345,767.523621 
	C789.557312,773.051636 793.044739,780.540283 791.906738,790.873352 
	C791.748291,792.096741 791.680664,792.548035 791.630920,793.016602 
	C791.648743,793.033813 791.651550,792.998291 791.430298,793.302612 
	C790.058105,795.983154 788.907166,798.359436 787.756226,800.735779 
	C787.756287,800.735779 787.789062,800.773499 787.485596,800.910278 
	C786.984253,801.558350 786.786316,802.069641 786.588379,802.580872 
	C786.588379,802.580872 786.385010,802.491943 786.008728,802.600464 
	C774.676636,811.647766 764.402588,811.332214 752.712219,801.697815 
	C752.712219,801.697815 752.602051,801.533142 752.524353,801.209534 
	C751.681702,799.879333 750.916809,798.872742 750.151917,797.866150 
	C750.151917,797.866150 750.172180,797.958008 750.150146,797.527100 
	C749.363220,793.066772 748.598328,789.037415 747.935791,784.633423 
	C748.801636,781.591858 749.565063,778.924988 750.328491,776.258118 
	C750.328491,776.258118 750.304443,776.138306 750.540649,776.009644 
	C751.304138,774.961426 751.831360,774.041931 752.358582,773.122437 
	C753.175903,772.304016 753.993225,771.485596 755.194458,770.267090 
	C756.128967,769.305542 756.679443,768.744080 757.229980,768.182617 
	C757.229980,768.182617 757.120789,768.144287 757.396118,768.130981 
	C757.896973,767.836121 758.122559,767.554626 758.348145,767.273071 
	C758.348083,767.273071 758.196472,767.317444 758.610352,767.296509 
	C766.618896,763.421509 774.184998,763.921753 781.731567,767.423950 
	C781.731567,767.423950 781.686035,767.485657 781.691345,767.523621 
z"/>
<path fill="#000000" opacity="1.000000" stroke="none" 
	d="
M792.451233,822.096863 
	C800.882202,805.663269 819.337097,805.947998 828.412292,814.677917 
	C834.323853,820.364563 835.954529,827.286865 834.888306,835.870483 
	C833.385071,839.658142 832.039490,842.684814 830.693970,845.711487 
	C830.693970,845.711487 830.615967,845.658813 830.266235,845.755737 
	C823.124146,852.800659 814.982605,854.984314 805.770996,852.078613 
	C793.482666,848.202393 788.524902,836.762512 792.451233,822.096863 
z"/>
<path fill="#000000" opacity="1.000000" stroke="none" 
	d="
M760.024841,855.101501 
	C760.578735,854.953186 761.132629,854.804810 762.286682,854.382812 
	C767.240051,853.956238 771.593323,853.803406 775.946533,853.650635 
	C780.393005,857.009644 784.839417,860.368652 789.545654,863.934631 
	C789.805481,864.141541 789.833862,864.103943 789.901733,864.490417 
	C792.904846,870.763306 792.480469,876.865051 791.012146,883.314575 
	C790.819275,884.008789 790.747375,884.414490 790.675415,884.820190 
	C790.675415,884.820190 790.742615,884.937561 790.473877,885.026245 
	C789.718079,886.353638 789.230957,887.592224 788.743774,888.830811 
	C788.743774,888.830811 788.667053,888.709229 788.291687,888.760254 
	C777.141479,900.062927 762.471497,900.439941 753.051880,889.707458 
	C745.856201,881.508850 746.312561,870.023865 754.264038,859.205811 
	C754.264038,859.205811 754.159851,859.162476 754.458130,859.095337 
	C755.231323,858.388123 755.706299,857.748108 756.181274,857.108032 
	C756.181274,857.108032 756.059082,857.063782 756.355408,857.050537 
	C757.169922,856.713440 757.688110,856.389587 758.206299,856.065674 
	C758.458313,856.134766 758.691711,856.095093 759.263428,855.706177 
	C759.755127,855.344360 759.890015,855.222900 760.024841,855.101501 
z"/>
<path fill="#D39D40" opacity="1.000000" stroke="none" 
	d="
M753.916504,859.157349 
	C746.312561,870.023865 745.856201,881.508850 753.051880,889.707458 
	C762.471497,900.439941 777.141479,900.062927 788.223389,888.782593 
	C788.695923,889.246643 788.861328,889.739258 788.729248,890.779785 
	C786.306213,893.233826 784.180603,895.140076 782.054993,897.046326 
	C780.253845,897.974243 778.452759,898.902161 775.938049,899.966797 
	C771.803040,900.153198 768.381592,900.202820 764.960205,900.252441 
	C762.851135,899.290894 760.742004,898.329346 758.317627,897.234070 
	C745.355042,887.071960 742.761780,876.319031 749.835815,862.331238 
	C751.173523,861.039551 752.371277,860.074219 753.916504,859.157349 
z"/>
<path fill="#D39D40" opacity="1.000000" stroke="none" 
	d="
M792.070801,822.190674 
	C788.524902,836.762512 793.482666,848.202393 805.770996,852.078613 
	C814.982605,854.984314 823.124146,852.800659 830.221313,845.769775 
	C828.860352,847.882202 827.642883,850.821472 825.450317,852.142517 
	C816.464661,857.556946 807.427734,856.733276 798.242920,850.853577 
	C797.570190,850.325012 797.312256,850.147644 796.999451,850.050110 
	C796.999451,850.050110 796.503357,850.004456 796.255005,849.986328 
	C792.229126,843.776855 788.137024,837.616699 789.069336,829.899231 
	C789.384094,827.293518 790.785522,824.819031 792.070801,822.190674 
z"/>
<path fill="#D39D40" opacity="1.000000" stroke="none" 
	d="
M704.624512,826.861938 
	C703.979980,844.386597 714.515747,855.291321 730.257690,852.806885 
	C733.861389,852.238098 737.201538,849.998962 740.970581,848.534668 
	C740.337036,849.860657 739.395752,851.180603 738.261353,852.760376 
	C726.475952,858.174011 716.488342,855.976501 707.974976,846.583923 
	C702.802246,840.876892 702.549988,834.002136 702.989990,826.452637 
	C703.461792,826.239807 703.926147,826.489014 704.624512,826.861938 
z"/>
<path fill="#D39D40" opacity="1.000000" stroke="none" 
	d="
M752.486694,802.012451 
	C764.402588,811.332214 774.676636,811.647766 785.916626,802.662415 
	C786.207214,803.330383 786.528076,804.364014 786.174072,804.712891 
	C777.829590,812.938049 761.998596,814.197876 752.524719,803.733643 
	C752.251831,803.432251 752.340881,802.803345 752.486694,802.012451 
z"/>
<path fill="#C99237" opacity="1.000000" stroke="none" 
	d="
M781.686035,767.045654 
	C774.184998,763.921753 766.618896,763.421509 758.660278,767.357788 
	C759.251282,766.443665 760.029175,764.938232 761.190247,764.534119 
	C768.287903,762.064270 775.278625,761.636108 781.686035,767.045654 
z"/>
<path fill="#D39D40" opacity="1.000000" stroke="none" 
	d="
M747.063232,841.780518 
	C749.257019,835.660034 749.825500,829.364075 747.614868,822.510010 
	C752.590271,825.365784 751.813721,836.485901 747.063232,841.780518 
z"/>
<path fill="#D39D40" opacity="1.000000" stroke="none" 
	d="
M747.833435,785.008057 
	C748.598328,789.037415 749.363220,793.066772 750.176880,797.488403 
	C745.519775,795.033264 745.993774,790.356812 746.290894,785.415527 
	C747.013184,784.988098 747.423340,784.998047 747.833435,785.008057 
z"/>
<path fill="#D39D40" opacity="1.000000" stroke="none" 
	d="
M775.831787,853.321533 
	C771.593323,853.803406 767.240051,853.956238 762.469971,854.155884 
	C766.260498,849.878296 770.906494,850.506226 775.831787,853.321533 
z"/>
<path fill="#D39D40" opacity="1.000000" stroke="none" 
	d="
M831.018677,845.732544 
	C832.039490,842.684814 833.385071,839.658142 834.902832,836.330444 
	C834.749146,838.441467 834.423157,840.853516 834.046875,843.624939 
	C833.112183,844.574158 832.227783,845.163879 831.018677,845.732544 
z"/>
<path fill="#C99237" opacity="1.000000" stroke="none" 
	d="
M747.935791,784.633423 
	C747.423340,784.998047 747.013184,784.988098 746.295166,784.976074 
	C747.179321,782.047180 748.371399,779.120239 749.945984,776.225708 
	C749.565063,778.924988 748.801636,781.591858 747.935791,784.633423 
z"/>
<path fill="#D39D40" opacity="1.000000" stroke="none" 
	d="
M788.113464,800.810852 
	C788.907166,798.359436 790.058105,795.983154 791.545654,793.803345 
	C791.953918,794.333740 792.025574,794.667725 792.097229,795.001709 
	C790.888367,796.963135 789.679565,798.924500 788.113464,800.810852 
z"/>
<path fill="#D39D40" opacity="1.000000" stroke="none" 
	d="
M743.913574,846.500854 
	C744.436523,844.958984 745.322571,843.542236 746.492920,841.954956 
	C745.943726,843.398254 745.110229,845.012085 743.913574,846.500854 
z"/>
<path fill="#D39D40" opacity="1.000000" stroke="none" 
	d="
M750.085205,798.238464 
	C750.916809,798.872742 751.681702,799.879333 752.428345,801.185303 
	C751.612793,800.526672 750.815674,799.568726 750.085205,798.238464 
z"/>
<path fill="#C99237" opacity="1.000000" stroke="none" 
	d="
M751.973755,773.135254 
	C751.831360,774.041931 751.304138,774.961426 750.517883,776.066284 
	C750.702209,775.217163 751.145569,774.182678 751.973755,773.135254 
z"/>
<path fill="#D39D40" opacity="1.000000" stroke="none" 
	d="
M755.825867,857.116760 
	C755.706299,857.748108 755.231323,858.388123 754.477051,859.148438 
	C754.621948,858.554321 755.046204,857.839905 755.825867,857.116760 
z"/>
<path fill="#C99237" opacity="1.000000" stroke="none" 
	d="
M756.880981,768.172119 
	C756.679443,768.744080 756.128967,769.305542 755.312134,770.000732 
	C755.541199,769.476868 756.036621,768.819275 756.880981,768.172119 
z"/>
<path fill="#D39D40" opacity="1.000000" stroke="none" 
	d="
M757.875854,856.084106 
	C757.688110,856.389587 757.169922,856.713440 756.342163,857.114136 
	C756.536926,856.828125 757.041138,856.465332 757.875854,856.084106 
z"/>
<path fill="#D39D40" opacity="1.000000" stroke="none" 
	d="
M791.613098,792.999390 
	C791.680664,792.548035 791.748291,792.096741 791.940063,791.325195 
	C792.233398,791.003296 792.402588,791.001587 792.826538,791.011230 
	C793.061829,791.470032 793.042297,791.917480 792.667847,792.695129 
	C792.079651,793.016663 791.846375,793.007996 791.613098,792.999390 
z"/>
<path fill="#C99237" opacity="1.000000" stroke="none" 
	d="
M791.630920,793.016602 
	C791.846375,793.007996 792.079651,793.016663 792.663208,793.031372 
	C792.851196,793.570251 792.688965,794.103027 792.312012,794.818787 
	C792.025574,794.667725 791.953918,794.333740 791.766907,793.499023 
	C791.651550,792.998291 791.648743,793.033813 791.630920,793.016602 
z"/>
<path fill="#D39D40" opacity="1.000000" stroke="none" 
	d="
M786.932495,802.599915 
	C786.786316,802.069641 786.984253,801.558350 787.471436,800.930908 
	C787.599365,801.416077 787.437988,802.017517 786.932495,802.599915 
z"/>
<path fill="#D39D40" opacity="1.000000" stroke="none" 
	d="
M743.058105,847.747559 
	C742.871094,847.388855 742.959106,846.997559 743.381836,846.680115 
	C743.588745,847.074280 743.460938,847.394653 743.058105,847.747559 
z"/>
<path fill="#D39D40" opacity="1.000000" stroke="none" 
	d="
M742.081238,848.762085 
	C741.889709,848.413696 741.965393,848.015198 742.380005,847.689575 
	C742.595520,848.078918 742.471985,848.395508 742.081238,848.762085 
z"/>
<path fill="#C99237" opacity="1.000000" stroke="none" 
	d="
M758.059631,767.309448 
	C758.122559,767.554626 757.896973,767.836121 757.397461,768.188782 
	C757.339355,767.955200 757.555237,767.650513 758.059631,767.309448 
z"/>
<path fill="#D39D40" opacity="1.000000" stroke="none" 
	d="
M759.878662,854.948792 
	C759.890015,855.222900 759.755127,855.344360 759.362061,855.552612 
	C759.313354,855.358337 759.522888,855.077209 759.878662,854.948792 
z"/>
<path fill="#C08A31" opacity="1.000000" stroke="none" 
	d="
M850.273682,910.826660 
	C850.738892,909.675232 851.500427,908.382996 852.608643,907.034546 
	C852.160278,908.214111 851.365173,909.449951 850.273682,910.826660 
z"/>
<path fill="#AE7823" opacity="1.000000" stroke="none" 
	d="
M838.644043,921.934814 
	C837.848267,923.226135 836.706299,924.452881 835.037964,925.544067 
	C831.002930,923.593445 827.108093,922.227966 825.565186,927.259705 
	C823.778442,933.086365 819.461609,935.340027 814.407654,936.594238 
	C811.209167,937.387939 809.358032,938.749756 809.011292,942.012207 
	C796.286743,949.351135 782.527344,954.887085 768.075500,955.681580 
	C741.756958,957.128540 715.332764,956.654785 688.486450,956.975464 
	C689.497742,956.312317 690.961121,955.129578 692.455200,955.089294 
	C699.773743,954.892212 707.121094,955.346680 714.418823,954.910278 
	C723.406189,954.372803 732.171814,953.555481 740.977234,950.139038 
	C746.834167,947.866577 752.370605,945.834839 757.354126,941.996948 
	C758.549194,941.076538 761.107239,940.839355 762.515076,941.465271 
	C769.552673,944.593994 773.928589,940.510986 777.927002,935.961975 
	C781.093811,932.359192 784.911682,931.137939 789.339111,931.668640 
	C794.422241,932.277954 799.221680,933.188232 801.169678,926.434814 
	C802.072144,923.305908 804.645630,922.371277 807.981201,923.440186 
	C812.576477,924.912720 816.363586,923.338013 819.634888,919.904480 
	C824.636597,914.654846 832.857117,915.400330 837.456238,921.372314 
	C837.640869,921.612183 838.013062,921.707581 838.644043,921.934814 
z"/>
<path fill="#BB842B" opacity="1.000000" stroke="none" 
	d="
M764.974487,900.637817 
	C768.381592,900.202820 771.803040,900.153198 775.626770,900.129395 
	C776.021667,900.484924 776.006653,900.814453 776.007935,901.144043 
	C776.023621,905.158997 776.437683,909.950806 770.704529,909.809509 
	C765.473145,909.680481 765.396240,904.959900 764.974487,900.637817 
z"/>
<path fill="#C08A31" opacity="1.000000" stroke="none" 
	d="
M791.133057,883.026001 
	C792.480469,876.865051 792.904846,870.763306 789.888672,864.498291 
	C790.649536,864.942139 791.469360,865.788635 792.338257,866.581299 
	C793.634705,867.763916 795.212769,868.729675 796.217834,870.116150 
	C797.398193,871.744385 798.471497,873.641113 798.895508,875.574036 
	C799.340027,877.600525 799.368652,879.829346 796.059814,880.171936 
	C794.956055,880.286255 794.033691,882.151184 793.017883,883.609131 
	C793.007324,884.002441 792.582703,884.029785 792.239075,883.831421 
	C791.698792,883.358459 791.444702,883.156128 791.133057,883.026001 
z"/>
<path fill="#BB842B" opacity="1.000000" stroke="none" 
	d="
M782.313171,897.248291 
	C784.180603,895.140076 786.306213,893.233826 788.725220,891.175903 
	C792.733582,894.609985 793.708740,898.695801 790.878174,904.177429 
	C788.034363,901.874390 785.302856,899.662354 782.313171,897.248291 
z"/>
<path fill="#D39D40" opacity="1.000000" stroke="none" 
	d="
M789.112000,888.785095 
	C789.230957,887.592224 789.718079,886.353638 790.533081,884.993652 
	C790.400757,886.161316 789.940491,887.450378 789.112000,888.785095 
z"/>
<path fill="#D39D40" opacity="1.000000" stroke="none" 
	d="
M791.012146,883.314575 
	C791.444702,883.156128 791.698792,883.358459 792.026733,883.843628 
	C791.861267,884.299194 791.564514,884.544128 790.971558,884.804626 
	C790.747375,884.414490 790.819275,884.008789 791.012146,883.314575 
z"/>
<path fill="#B67F27" opacity="1.000000" stroke="none" 
	d="
M809.380188,942.000610 
	C809.358032,938.749756 811.209167,937.387939 814.407654,936.594238 
	C819.461609,935.340027 823.778442,933.086365 825.565186,927.259705 
	C827.108093,922.227966 831.002930,923.593445 834.753052,925.682007 
	C831.318848,926.191467 829.258667,928.022339 827.362305,931.368469 
	C825.992493,933.785400 822.429504,935.031677 819.730774,936.604553 
	C816.466309,938.507141 813.081665,940.203369 809.380188,942.000610 
z"/>
<path fill="#F2EDE3" opacity="1.000000" stroke="none" 
	d="
M351.892242,822.446106 
	C350.676666,822.260193 349.524628,821.728394 348.372559,821.196533 
	C348.817810,820.572876 349.263062,819.949219 349.708282,819.325623 
	C350.457458,820.250488 351.206635,821.175354 351.892242,822.446106 
z"/>
<path fill="#F2EDE3" opacity="1.000000" stroke="none" 
	d="
M289.176605,877.298096 
	C289.812195,877.927185 290.122253,878.634460 290.432343,879.341675 
	C289.990814,879.456421 289.549316,879.571167 289.107819,879.685913 
	C289.022247,878.916077 288.936646,878.146179 289.176605,877.298096 
z"/>
<path fill="#F2EDE3" opacity="1.000000" stroke="none" 
	d="
M287.406006,886.419861 
	C286.599030,886.332153 286.016571,886.023132 285.434143,885.714172 
	C285.864655,885.288757 286.295197,884.863342 286.725708,884.437866 
	C287.027313,885.024780 287.328949,885.611633 287.406006,886.419861 
z"/>
<path fill="#C08A31" opacity="1.000000" stroke="none" 
	d="
M797.121094,850.252563 
	C797.312256,850.147644 797.570190,850.325012 797.889893,850.789673 
	C797.701416,850.887451 797.446777,850.706787 797.121094,850.252563 
z"/>
</svg>